<svg width="24" height="24" viewBox="0 0 24 24" fill="none" xmlns="http://www.w3.org/2000/svg">
<path fill-rule="evenodd" clip-rule="evenodd" d="M17.9996 11V16L19.2896 17.29C19.9196 17.92 19.4696 19 18.5796 19H5.40956C4.51956 19 4.07956 17.92 4.70956 17.29L5.99956 16V11C5.99956 7.92 7.62956 5.36 10.4996 4.68V4C10.4996 3.17 11.1696 2.5 11.9996 2.5C12.8296 2.5 13.4996 3.17 13.4996 4V4.68C16.3596 5.36 17.9996 7.93 17.9996 11ZM13.9996 20C13.9996 21.1 13.0996 22 11.9996 22C10.8896 22 9.99956 21.1 9.99956 20H13.9996Z" fill="#8891A3"/>
</svg>
