<svg width="10" height="12" viewBox="0 0 10 12" fill="none" xmlns="http://www.w3.org/2000/svg">
<path d="M9.73825 5.73349C10.0872 5.37813 10.0872 4.8041 9.73825 4.44875L5.63087 0.266515C5.28188 -0.0888385 4.71812 -0.0888385 4.36913 0.266515L0.261745 4.44875C-0.0872481 4.8041 -0.0872481 5.37813 0.261745 5.73349C0.610738 6.08884 1.1745 6.08884 1.52349 5.73349L5.00447 2.19818L8.47651 5.73349C8.8255 6.08884 9.39821 6.07973 9.73825 5.73349Z" fill="#8891A3"/>
<path fill-rule="evenodd" clip-rule="evenodd" d="M5 1C5.55228 1 6 1.35178 6 1.78571V11.2143C6 11.6482 5.55228 12 5 12C4.44772 12 4 11.6482 4 11.2143V1.78571C4 1.35178 4.44772 1 5 1Z" fill="#8891A3"/>
</svg>
