<svg width="169" height="20" viewBox="0 0 169 20" fill="none" xmlns="http://www.w3.org/2000/svg">
<path fill-rule="evenodd" clip-rule="evenodd" d="M4.48293 15.1168H0.977539V0H4.48293V5.83864H10.6174V0H14.1228V15.1168H10.6174V8.72611H4.48293V15.1168ZM21.4048 9.85138L16.1467 0H19.8608L23.1575 6.70913L26.3082 0H30.0848L24.9102 9.85138V15.1168H21.4048V9.85138ZM32.1505 0V15.1168H37.7216C42.8545 15.1168 46.2764 12.1019 46.2764 7.55839C46.2764 3.01486 42.8545 0 37.7216 0H32.1505ZM42.7919 7.55839C42.7919 4.62845 40.7471 2.78132 37.7216 2.78132H35.5516V12.3355H37.7216C40.7471 12.3355 42.7919 10.4883 42.7919 7.55839ZM56.1667 0H48.9681V15.1168H52.4735V9.83015H55.499L58.4201 15.1168H62.3428L58.754 9.34182C60.6945 8.70488 62.009 7.04883 62.009 5.03185C62.009 2.05945 59.6095 0 56.1667 0ZM55.6033 2.69639H52.4735V7.30361H55.6033C57.2517 7.30361 58.5036 6.39066 58.5036 5.03185C58.5036 3.54565 57.2517 2.69639 55.6033 2.69639ZM75.0916 15.1168H78.7639L73.798 0H68.7068L63.7199 15.1168H67.4131L68.2477 12.3779H74.2153L75.0916 15.1168ZM71.2524 3.05733L68.9989 9.80892H73.5058L71.2524 3.05733ZM81.8312 11.8684C80.7879 11.8684 80.0159 12.6115 80.0159 13.6518C80.0159 14.7134 80.7879 15.4565 81.8312 15.4565C82.8953 15.4565 83.6465 14.7134 83.6465 13.6518C83.6465 12.6115 82.8953 11.8684 81.8312 11.8684ZM87.757 13.3121V20H86.1712V4.3949H87.7152V6.24204C88.6124 4.84076 90.1147 3.97028 91.93 3.97028C95.0599 3.97028 97.3551 6.41189 97.3551 9.76645C97.3551 13.0998 95.0807 15.5414 91.93 15.5414C90.1356 15.5414 88.6542 14.7134 87.757 13.3121ZM91.7422 5.5414C94.0583 5.5414 95.7693 7.28238 95.7693 9.76645C95.7693 12.1868 94.0792 13.9703 91.7422 13.9703C89.4053 13.9703 87.7152 12.1868 87.7152 9.76645C87.7152 7.32484 89.4053 5.5414 91.7422 5.5414ZM104.533 4.01274C104.971 4.01274 105.472 4.1189 105.952 4.30998V5.79618C105.409 5.5414 104.804 5.45648 104.387 5.45648C102.738 5.45648 101.653 6.96391 101.653 9.10828V15.1168H100.068V4.3949H101.612V5.8811C102.238 4.71338 103.239 4.01274 104.533 4.01274ZM112.67 15.5414C115.967 15.5414 118.304 13.1423 118.304 9.76645C118.304 6.36943 115.967 3.97028 112.67 3.97028C109.374 3.97028 107.057 6.36943 107.057 9.76645C107.057 13.1423 109.374 15.5414 112.67 15.5414ZM116.697 9.76646C116.697 7.26115 115.007 5.45648 112.67 5.45648C110.333 5.45648 108.643 7.26115 108.643 9.76646C108.643 12.2505 110.333 14.0764 112.67 14.0764C115.007 14.0764 116.697 12.2505 116.697 9.76646ZM121.183 4.39491V16.7091C121.183 17.707 120.557 18.4076 119.598 18.4076C119.18 18.4076 118.638 18.344 118.241 18.1953V19.6178C118.721 19.7877 119.41 19.8938 120.015 19.8938C121.663 19.8938 122.769 18.6837 122.769 16.879V4.39491H121.183ZM120.891 1.31635C120.891 0.679405 121.329 0.233545 121.976 0.233545C122.602 0.233545 123.061 0.679405 123.061 1.31635C123.061 1.95329 122.602 2.42038 121.976 2.42038C121.329 2.42038 120.891 1.95329 120.891 1.31635ZM134.913 11.9321C134.391 13.1423 132.868 14.0764 131.282 14.0764C129.196 14.0764 127.589 12.5265 127.339 10.276L136.812 10.2972C136.832 10.0637 136.832 9.85138 136.832 9.6603C136.832 6.36943 134.516 3.97028 131.303 3.97028C128.048 3.97028 125.711 6.36943 125.711 9.63907C125.711 13.0573 128.09 15.5414 131.387 15.5414C133.577 15.5414 135.664 14.2463 136.332 12.4628L134.913 11.9321ZM127.38 8.87473L135.163 8.89597C134.871 6.85775 133.327 5.45648 131.241 5.45648C129.196 5.45648 127.673 6.85775 127.38 8.87473ZM147.995 8.1104L149.54 7.89809C149.143 5.62633 146.994 3.97028 144.448 3.97028C141.277 3.97028 138.961 6.41189 138.961 9.76645C138.961 13.121 141.256 15.5414 144.448 15.5414C146.931 15.5414 149.08 13.9278 149.56 11.6773L147.995 11.465C147.578 12.9936 146.159 14.1189 144.448 14.1189C142.216 14.1189 140.547 12.293 140.547 9.76645C140.547 7.23991 142.237 5.39278 144.448 5.39278C146.118 5.39278 147.599 6.53928 147.995 8.1104ZM153.17 12.4628V5.73248H151.438V4.3949H153.233L153.462 1.8896H154.756V4.3949H157.489V5.73248H154.756V12.3991C154.756 13.4395 155.382 14.1401 156.383 14.1614C156.717 14.1614 157.26 14.0764 157.656 13.949V15.2866C157.176 15.4352 156.509 15.5414 155.987 15.5414C154.255 15.5414 153.17 14.31 153.17 12.4628ZM159.868 11.5287C159.847 13.8429 161.808 15.5414 164.521 15.5414C167.046 15.5414 168.861 14.0552 168.861 12.0807C168.861 9.90669 166.667 9.46356 164.694 9.0652C163.083 8.73993 161.621 8.44452 161.621 7.26115C161.621 6.22081 162.727 5.45648 164.083 5.45648C165.815 5.45648 167.067 6.3482 167.067 7.57962L168.631 7.60085C168.631 5.49894 166.712 3.97028 164.124 3.97028C161.85 3.97028 160.077 5.35032 160.077 7.21868C160.077 9.58263 162.314 10.0186 164.301 10.4058C165.884 10.7141 167.308 10.9916 167.317 12.1868C167.317 13.2696 166.148 14.0764 164.521 14.0764C162.727 14.0764 161.412 13.0149 161.412 11.5287H159.868Z" fill="#2B2C30"/>
</svg>
